<svg width="413" height="87" viewBox="0 0 413 87" fill="none" xmlns="http://www.w3.org/2000/svg">
<mask id="path-1-inside-1_6_26" fill="white">
<path d="M0 20C0 8.95431 8.95431 0 20 0L392.833 0C403.878 0 412.833 8.9543 412.833 20V66.5217C412.833 77.5674 403.878 86.5217 392.833 86.5217H20C8.9543 86.5217 0 77.5674 0 66.5217L0 20Z"/>
</mask>
<path d="M0 20C0 8.95431 8.95431 0 20 0L392.833 0C403.878 0 412.833 8.9543 412.833 20V66.5217C412.833 77.5674 403.878 86.5217 392.833 86.5217H20C8.9543 86.5217 0 77.5674 0 66.5217L0 20Z" fill="white"/>
<path d="M80.81 71.786L61.8833 33.9328C61.6623 33.4854 61.3203 33.109 60.8961 32.8461C60.472 32.5833 59.9827 32.4445 59.4837 32.4457C58.9798 32.4422 58.485 32.5795 58.055 32.8423C57.625 33.1051 57.277 33.4827 57.0503 33.9328L49.7162 48.6009C43.9667 48.2891 38.4337 46.3038 33.7976 42.8891C39.2349 37.0671 42.5355 29.5722 43.1595 21.6304H51.3723C52.0894 21.6304 52.7771 21.3456 53.2842 20.8385C53.7912 20.3315 54.0761 19.6437 54.0761 18.9266C54.0761 18.2095 53.7912 17.5218 53.2842 17.0148C52.7771 16.5077 52.0894 16.2228 51.3723 16.2228H32.4457V10.8152C32.4457 10.0981 32.1608 9.41041 31.6537 8.90335C31.1467 8.39628 30.4589 8.11142 29.7418 8.11142C29.0248 8.11142 28.337 8.39628 27.83 8.90335C27.3229 9.41041 27.038 10.0981 27.038 10.8152V16.2228H8.11141C7.39432 16.2228 6.7066 16.5077 6.19953 17.0148C5.69247 17.5218 5.40761 18.2095 5.40761 18.9266C5.40761 19.6437 5.69247 20.3315 6.19953 20.8385C6.7066 21.3456 7.39432 21.6304 8.11141 21.6304H37.7181C37.1217 28.2515 34.3118 34.4785 29.7418 39.3066C26.8881 36.3048 24.6999 32.7346 23.3203 28.8293C23.0761 28.1587 22.5767 27.6117 21.9309 27.3078C21.2851 27.0039 20.5454 26.9677 19.873 27.207C19.5351 27.3207 19.2235 27.5009 18.9564 27.737C18.6893 27.973 18.4722 28.2601 18.3179 28.5814C18.1635 28.9027 18.0751 29.2517 18.0577 29.6077C18.0404 29.9637 18.0945 30.3196 18.2169 30.6544C19.838 35.2032 22.3809 39.3684 25.6861 42.8891C20.6012 46.6542 14.4385 48.6808 8.11141 48.6685C7.39432 48.6685 6.7066 48.9533 6.19953 49.4604C5.69247 49.9675 5.40761 50.6552 5.40761 51.3723C5.40761 52.0894 5.69247 52.7771 6.19953 53.2842C6.7066 53.7912 7.39432 54.0761 8.11141 54.0761C15.9537 54.074 23.5692 51.4443 29.7418 46.6068C34.7678 50.5456 40.7751 53.035 47.1138 53.8057L38.1236 71.786C37.801 72.4269 37.7461 73.1698 37.9711 73.8511C38.1961 74.5325 38.6826 75.0965 39.3235 75.4192C39.9644 75.7419 40.7072 75.7968 41.3886 75.5718C42.0699 75.3468 42.634 74.8603 42.9567 74.2194L47.6208 64.8913H71.3128L75.9769 74.2194C76.2037 74.6694 76.5516 75.0471 76.9816 75.3099C77.4116 75.5727 77.9064 75.71 78.4103 75.7065C78.8298 75.6976 79.2433 75.6057 79.627 75.4361C80.2633 75.1042 80.7438 74.5357 80.965 73.853C81.1862 73.1703 81.1306 72.428 80.81 71.786ZM50.3246 59.4837L59.4837 41.1992L68.609 59.4837H50.3246Z" fill="black"/>
<path d="M123.886 44.9436V43.3291C123.886 41.5041 123.637 39.796 123.137 38.2049C121.656 33.4472 118.629 31.0684 114.059 31.0684H114.012H112.983C111.095 31.0684 110.034 31.474 109.8 32.2851C109.676 32.7063 109.613 34.9525 109.613 39.0238V47.1898L109.59 48.6639V52.2907L109.613 52.665L109.637 53.718L109.683 55.1453C109.683 55.9096 109.933 56.4556 110.432 56.7832C110.931 57.1107 111.93 57.2745 113.427 57.2745L113.778 57.2511C118.364 57.2511 121.406 55.1063 122.904 50.8166C123.559 48.9135 123.886 46.9559 123.886 44.9436ZM104.653 36.0756C104.637 35.7325 104.629 35.1319 104.629 34.274C104.629 33.4004 104.427 32.4801 104.021 31.513C103.631 30.5303 103.436 29.9765 103.436 29.8517V29.4773C103.436 28.9002 103.927 28.5258 104.91 28.3542C106.829 28.011 109.387 27.8394 112.585 27.8394H114.246C119.051 27.8394 122.802 29.1887 125.501 31.8874C126.858 33.2445 127.887 34.9525 128.589 37.0116C129.291 39.0706 129.642 41.2467 129.642 43.5397L129.619 44.1247C129.603 46.7297 129.19 49.1241 128.379 51.3079C126.772 55.5976 123.824 58.4444 119.534 59.8483C117.709 60.4411 115.4 60.7375 112.608 60.7375H111.532C108.693 60.7375 106.493 60.5971 104.934 60.3163C103.998 60.1447 103.53 59.7703 103.53 59.1932C103.53 58.8344 103.709 58.2494 104.068 57.4383C104.427 56.6272 104.637 55.7536 104.7 54.8177C104.762 53.8662 104.793 50.6606 104.793 45.201L104.77 44.1013V40.8489L104.676 36.5904L104.653 36.0756ZM144.477 58.0467H144.945C146.52 58.0467 147.815 57.3525 148.829 55.9642C149.843 54.5759 150.35 52.821 150.35 50.6996L150.397 50.1848L150.42 49.3893V48.3364C150.42 46.0121 149.944 44.1013 148.993 42.6038C148.057 41.0907 146.801 40.3341 145.225 40.3341H144.758C143.213 40.3341 141.911 41.0985 140.85 42.6272C139.805 44.1559 139.282 46.1837 139.282 48.7107V50.3018C139.314 50.6762 139.329 50.9336 139.329 51.074C139.329 52.8522 139.82 54.4589 140.803 55.894C141.786 57.3291 143.01 58.0467 144.477 58.0467ZM155.708 48.6639V49.4361C155.708 50.8244 155.482 52.2517 155.029 53.718C154.109 56.6974 152.3 58.8344 149.601 60.1291C148.041 60.8779 146.497 61.2522 144.968 61.2522H144.173C142.722 61.2522 141.373 60.9559 140.125 60.3631C137.644 59.1776 135.999 57.2121 135.188 54.4667C134.751 53.016 134.532 51.5419 134.532 50.0444V48.8511C134.532 47.3848 134.759 45.9185 135.211 44.4522C136.1 41.5509 137.863 39.4762 140.499 38.2283C141.856 37.5731 143.244 37.2456 144.664 37.2456H145.834C147.175 37.2456 148.501 37.5341 149.812 38.1113C152.432 39.2656 154.195 41.3247 155.1 44.2885C155.505 45.5988 155.708 47.0573 155.708 48.6639ZM170.519 60.9948H170.004C168.507 60.9948 167.119 60.7141 165.839 60.1525C163.328 59.045 161.628 57.1965 160.739 54.6071C160.239 53.1408 159.99 51.5809 159.99 49.9274V49.3893C159.99 47.5486 160.263 45.8795 160.809 44.382C161.854 41.5119 163.765 39.4606 166.541 38.2283C167.867 37.6511 169.497 37.3626 171.432 37.3626C173.366 37.3626 174.949 37.7525 176.181 38.5325C177.429 39.2968 178.053 40.2327 178.053 41.3403C178.053 42.5414 177.445 43.1419 176.228 43.1419C175.869 43.1419 175.347 42.9392 174.661 42.5336C173.974 42.128 173.584 41.9018 173.491 41.855C172.399 41.3403 171.299 41.0829 170.191 41.0829C168.678 41.0829 167.43 41.7926 166.448 43.2121C165.465 44.616 164.974 46.6283 164.974 49.2489C164.974 51.8539 165.551 53.8272 166.705 55.1687C167.875 56.5102 169.388 57.1809 171.244 57.1809C172.243 57.1809 173.506 56.9625 175.035 56.5258C176.579 56.0734 177.461 55.8472 177.679 55.8472C178.303 55.8472 178.615 56.1904 178.615 56.8767C178.615 57.7971 177.726 58.7174 175.947 59.6377C174.185 60.5425 172.375 60.9948 170.519 60.9948ZM205.967 30.6004C205.967 32.0823 205.515 32.8233 204.61 32.8233C204.267 32.8233 203.62 32.6907 202.668 32.4255C201.717 32.1603 200.773 32.0277 199.837 32.0277C197.762 32.0277 196.538 32.8077 196.164 34.3676C195.852 35.6779 195.696 39.5464 195.696 45.9731L195.625 50.5592V52.899C195.625 53.8194 195.68 54.5135 195.789 54.9815C195.914 55.4494 196.093 56.0188 196.327 56.6896C196.577 57.3603 196.702 57.8907 196.702 58.2806C196.702 59.0606 196.366 59.6611 195.696 60.0823C195.04 60.5035 194.12 60.7141 192.935 60.7141H192.35C191.492 60.7141 190.727 60.5035 190.057 60.0823C189.386 59.6455 189.051 59.1308 189.051 58.538C189.051 57.9453 189.144 57.3915 189.331 56.8767L189.518 56.4088L189.729 55.9408C189.869 55.6132 190.033 55.1063 190.22 54.4199C190.423 53.7336 190.525 52.4701 190.525 50.6294L190.548 49.9742C190.564 49.5375 190.571 49.1007 190.571 48.6639L190.618 47.3302L190.688 42.0422C190.688 37.6121 190.556 34.9213 190.291 33.9698C189.947 32.7375 188.973 32.1213 187.366 32.1213C186.43 32.1213 185.338 32.3319 184.09 32.7531C182.858 33.1587 182.093 33.3614 181.797 33.3614C181.033 33.3614 180.651 32.5659 180.651 30.9748C180.651 29.3837 181.329 28.479 182.686 28.2606C184.589 27.9642 189.074 27.816 196.14 27.816H202.645C203.846 27.816 204.696 28.0422 205.195 28.4946C205.71 28.947 205.967 29.6489 205.967 30.6004ZM218.181 42.2762C216.715 42.2762 215.576 43.0093 214.765 44.4756C213.954 45.9263 213.549 48.1492 213.549 51.1442C213.549 52.4701 213.603 53.4138 213.712 53.9754C213.822 54.5213 213.985 55.2077 214.204 56.0344C214.438 56.8455 214.555 57.5553 214.555 58.1637C214.555 58.7564 214.196 59.3024 213.478 59.8015C212.761 60.3007 211.825 60.5503 210.671 60.5503L210.273 60.5269H209.852C209.103 60.5269 208.479 60.3163 207.98 59.8951C207.496 59.474 207.254 58.9982 207.254 58.4678V58.0935C207.254 57.9843 207.403 57.4695 207.699 56.5492C207.995 55.6288 208.167 54.7397 208.214 53.8818C208.261 53.0238 208.284 51.8695 208.284 50.4188V47.8216L208.261 47.4004C208.261 47.1197 208.261 46.8389 208.261 46.5581L208.214 45.2946C208.198 45.0138 208.19 44.4678 208.19 43.6567C208.19 42.83 208.042 42.05 207.746 41.3169C207.465 40.5681 207.325 40.0846 207.325 39.8662C207.325 38.9302 208.144 38.4623 209.781 38.4623C211.419 38.4623 212.605 38.9068 213.338 39.796C213.556 40.0612 213.783 40.1938 214.017 40.1938C214.266 40.1938 214.672 39.9988 215.233 39.6088C216.793 38.5481 218.103 38.0177 219.164 38.0177H219.539C220.474 38.0177 221.184 38.2283 221.668 38.6495C222.167 39.0706 222.417 39.6322 222.417 40.3341C222.417 41.7224 221.644 42.4166 220.1 42.4166C219.492 42.323 218.852 42.2762 218.181 42.2762ZM233.788 57.8127H234.513C235.964 57.8127 237.243 57.1887 238.351 55.9408C238.959 55.2545 239.263 53.9754 239.263 52.1035L239.287 51.7993V51.2144C239.287 50.0444 238.803 49.4595 237.836 49.4595H237.087L235.871 49.5531L235.239 49.6233C233.804 49.6233 232.626 50.0288 231.706 50.84C230.785 51.6355 230.325 52.5871 230.325 53.6946V54.5135C230.325 55.3559 230.622 56.1202 231.214 56.8066C231.823 57.4773 232.681 57.8127 233.788 57.8127ZM245.628 58.9358C245.628 59.9809 244.575 60.5035 242.469 60.5035C242.094 60.5035 241.408 60.3163 240.41 59.9419C239.427 59.552 238.803 59.357 238.538 59.357C238.288 59.357 237.446 59.6299 236.011 60.1759C234.576 60.7063 233.312 60.9714 232.22 60.9714H231.682C229.982 60.9714 228.516 60.4177 227.283 59.3102C226.051 58.1871 225.435 56.6584 225.435 54.7241C225.435 50.7932 227.923 48.3442 232.899 47.377C236.128 46.7375 237.797 46.3943 237.906 46.3475C238.671 45.9575 239.053 45.2556 239.053 44.2417C239.053 43.2121 238.725 42.3542 238.07 41.6678C237.43 40.9659 236.549 40.6149 235.426 40.6149C234.318 40.6149 233.008 40.9971 231.495 41.7614C229.982 42.5102 228.945 42.8846 228.383 42.8846C227.369 42.8846 226.862 42.1904 226.862 40.8021C226.862 39.9286 227.658 39.1018 229.249 38.3219C230.855 37.5419 232.681 37.152 234.724 37.152H235.894C237.423 37.152 238.78 37.4406 239.965 38.0177C241.151 38.5949 242.055 39.3748 242.679 40.3575C243.569 41.7458 244.013 44.9202 244.013 49.8807C244.013 52.6884 244.068 54.4355 244.177 55.1219C244.302 55.8082 244.575 56.5024 244.996 57.2043C245.417 57.8907 245.628 58.4678 245.628 58.9358ZM253.747 60.0823C253.731 60.0823 253.708 60.0823 253.677 60.0823C251.883 60.0823 250.986 59.4662 250.986 58.2338C250.986 57.6411 251.142 56.9079 251.454 56.0344C251.766 55.1609 251.945 54.2795 251.992 53.3904C252.039 52.4857 252.062 51.1052 252.062 49.2489V44.8734L252.109 43.6567C252.14 42.8456 252.156 42.2684 252.156 41.9252L251.922 39.5152C251.922 38.9692 252.405 38.6963 253.372 38.6963C254.355 38.6963 255.361 38.9614 256.391 39.4918C257.42 40.0222 258.052 40.2873 258.286 40.2873C258.536 40.2873 258.996 40.1314 259.667 39.8194C260.353 39.5074 261.156 39.172 262.077 38.8133C263.013 38.4389 263.972 38.2517 264.955 38.2517H265.563C266.733 38.2517 267.77 38.5715 268.675 39.211C269.595 39.835 270.258 40.7085 270.664 41.8316C271.085 42.9392 271.381 44.9826 271.553 47.962L271.623 49.2489L271.67 50.5358C271.717 51.2845 271.771 52.0957 271.834 52.9692C271.896 53.8428 272.107 54.7631 272.465 55.7302C272.824 56.6818 273.004 57.3213 273.004 57.6489C273.004 59.0372 271.943 59.7313 269.821 59.7313C268.917 59.7313 268.254 59.552 267.833 59.1932C267.411 58.8188 267.201 58.1948 267.201 57.3213L267.248 56.4556C267.248 50.3876 266.811 46.2539 265.937 44.0545C265.251 42.3542 264.042 41.5041 262.311 41.5041C261.484 41.5041 260.673 41.7146 259.877 42.1358C259.097 42.5414 258.489 43.2043 258.052 44.1247C257.272 45.7625 256.882 48.9135 256.882 53.5776L257.069 57.8127C257.069 58.4834 256.75 59.0294 256.11 59.4506C255.471 59.8717 254.683 60.0823 253.747 60.0823ZM280.117 48.0322C278.775 46.8467 278.104 45.318 278.104 43.4461C278.104 41.5587 278.908 40.0222 280.515 38.8366C282.121 37.6355 284.165 37.035 286.645 37.035C289.125 37.035 290.935 37.3392 292.073 37.9475C293.212 38.5403 293.781 39.3202 293.781 40.2873C293.781 41.6132 293.352 42.2762 292.494 42.2762C292.198 42.2762 291.41 41.9564 290.131 41.3169C288.852 40.6773 287.612 40.3575 286.411 40.3575C285.21 40.3575 284.305 40.6305 283.697 41.1765C283.104 41.7224 282.808 42.4244 282.808 43.2823C282.808 44.1403 283.385 44.9046 284.539 45.5754C284.929 45.8093 286.192 46.3553 288.33 47.2132C290.482 48.0556 291.995 48.8589 292.869 49.6233C294.226 50.8244 294.904 52.3843 294.904 54.3029C294.904 56.2216 294.101 57.8361 292.494 59.1464C290.903 60.4411 288.844 61.0884 286.317 61.0884C282.028 61.0884 279.368 60.2539 278.338 58.5848C278.011 58.0545 277.847 57.5865 277.847 57.1809C277.847 55.8238 278.268 55.1453 279.111 55.1453C279.36 55.1453 280.273 55.5664 281.848 56.4088C283.439 57.2355 284.851 57.6489 286.083 57.6489C287.331 57.6489 288.314 57.3837 289.031 56.8533C289.749 56.323 290.108 55.6054 290.108 54.7007C290.108 53.7804 289.538 52.938 288.4 52.1737C287.932 51.8617 286.645 51.2845 284.539 50.4422C282.433 49.5843 280.959 48.7809 280.117 48.0322ZM300.333 28.4244C300.333 27.1921 301.347 26.5759 303.375 26.5759H303.796C305.247 26.5759 306.065 27.1765 306.253 28.3776V33.455L306.206 35.2099V36.0756L306.136 38.7431V39.6088L306.112 40.0768C306.112 40.3731 306.112 40.6695 306.112 40.9659L306.089 41.4105C306.089 41.7068 306.089 42.0032 306.089 42.2996L306.065 42.7442V44.9436L306.136 47.9386C306.151 48.2194 306.159 48.9291 306.159 50.0678C306.159 51.2066 306.307 52.4233 306.604 53.718C306.916 54.9971 307.306 56.0188 307.774 56.7832C308.242 57.5319 308.475 58.1715 308.475 58.7018C308.475 59.2322 308.148 59.7001 307.493 60.1057C306.853 60.5113 305.925 60.7141 304.708 60.7141H303.889C301.69 60.7141 300.59 59.8405 300.59 58.0935C300.59 57.9687 300.653 57.5631 300.777 56.8767C300.902 56.1904 300.972 54.9347 300.988 53.1096L301.128 47.5174L301.152 47.0729C301.152 46.7765 301.152 46.4801 301.152 46.1837L301.175 45.2946C301.175 44.9982 301.175 44.7018 301.175 44.4054L301.199 43.9609C301.199 43.6645 301.199 43.3681 301.199 43.0717L301.222 42.1826C301.222 41.8862 301.222 41.5899 301.222 41.2935L301.245 40.4043V39.4918L301.269 38.6027V34.2038C301.269 32.4255 301.113 31.084 300.801 30.1793C300.489 29.2745 300.333 28.6896 300.333 28.4244ZM321.157 57.8127H321.883C323.333 57.8127 324.613 57.1887 325.72 55.9408C326.328 55.2545 326.633 53.9754 326.633 52.1035L326.656 51.7993V51.2144C326.656 50.0444 326.172 49.4595 325.205 49.4595H324.457L323.24 49.5531L322.608 49.6233C321.173 49.6233 319.995 50.0288 319.075 50.84C318.155 51.6355 317.694 52.5871 317.694 53.6946V54.5135C317.694 55.3559 317.991 56.1202 318.584 56.8066C319.192 57.4773 320.05 57.8127 321.157 57.8127ZM332.997 58.9358C332.997 59.9809 331.944 60.5035 329.838 60.5035C329.464 60.5035 328.777 60.3163 327.779 59.9419C326.796 59.552 326.172 59.357 325.907 59.357C325.658 59.357 324.815 59.6299 323.38 60.1759C321.945 60.7063 320.682 60.9714 319.59 60.9714H319.052C317.351 60.9714 315.885 60.4177 314.653 59.3102C313.42 58.1871 312.804 56.6584 312.804 54.7241C312.804 50.7932 315.292 48.3442 320.268 47.377C323.497 46.7375 325.166 46.3943 325.275 46.3475C326.04 45.9575 326.422 45.2556 326.422 44.2417C326.422 43.2121 326.094 42.3542 325.439 41.6678C324.8 40.9659 323.918 40.6149 322.795 40.6149C321.688 40.6149 320.377 40.9971 318.864 41.7614C317.351 42.5102 316.314 42.8846 315.752 42.8846C314.738 42.8846 314.231 42.1904 314.231 40.8021C314.231 39.9286 315.027 39.1018 316.618 38.3219C318.225 37.5419 320.05 37.152 322.093 37.152H323.263C324.792 37.152 326.149 37.4406 327.335 38.0177C328.52 38.5949 329.425 39.3748 330.049 40.3575C330.938 41.7458 331.382 44.9202 331.382 49.8807C331.382 52.6884 331.437 54.4355 331.546 55.1219C331.671 55.8082 331.944 56.5024 332.365 57.2043C332.786 57.8907 332.997 58.4678 332.997 58.9358ZM347.27 60.6673H346.381C344.135 60.6673 342.52 59.7001 341.537 57.7659C340.726 56.1904 340.321 53.601 340.321 49.9976C340.321 46.3943 340.126 43.9219 339.736 42.5804C339.595 42.0812 339.205 41.5119 338.566 40.8723C337.926 40.2327 337.606 39.679 337.606 39.211V38.9068C337.606 38.5013 337.973 38.0567 338.706 37.5731C339.439 37.0896 339.86 36.7464 339.97 36.5436C340.094 36.3252 340.328 35.5687 340.672 34.274C341.03 32.9637 341.397 32.0511 341.771 31.5364C342.161 31.006 342.676 30.7408 343.316 30.7408C343.971 30.7408 344.431 30.928 344.696 31.3024C344.977 31.6768 345.25 32.4489 345.515 33.6188C345.796 34.7887 346.1 35.5843 346.428 36.0055C346.755 36.411 347.551 36.84 348.814 37.2924C350.078 37.7447 350.709 38.3063 350.709 38.977C350.709 39.5698 350.046 40.1002 348.721 40.5681C347.41 41.0361 346.584 41.6132 346.24 42.2996C345.585 43.6255 345.258 45.9731 345.258 49.3425C345.258 52.7118 345.546 54.7787 346.123 55.543C346.701 56.2918 347.636 56.752 348.931 56.9235C350.241 57.0951 350.897 57.5865 350.897 58.3976C350.897 59.0216 350.522 59.5598 349.773 60.0121C349.04 60.4489 348.206 60.6673 347.27 60.6673ZM365.357 58.0467H365.825C367.4 58.0467 368.695 57.3525 369.709 55.9642C370.723 54.5759 371.23 52.821 371.23 50.6996L371.277 50.1848L371.3 49.3893V48.3364C371.3 46.0121 370.824 44.1013 369.873 42.6038C368.937 41.0907 367.681 40.3341 366.106 40.3341H365.638C364.093 40.3341 362.791 41.0985 361.73 42.6272C360.685 44.1559 360.162 46.1837 360.162 48.7107V50.3018C360.194 50.6762 360.209 50.9336 360.209 51.074C360.209 52.8522 360.701 54.4589 361.683 55.894C362.666 57.3291 363.89 58.0467 365.357 58.0467ZM376.588 48.6639V49.4361C376.588 50.8244 376.362 52.2517 375.909 53.718C374.989 56.6974 373.18 58.8344 370.481 60.1291C368.921 60.8779 367.377 61.2522 365.848 61.2522H365.053C363.602 61.2522 362.253 60.9559 361.005 60.3631C358.524 59.1776 356.879 57.2121 356.068 54.4667C355.631 53.016 355.412 51.5419 355.412 50.0444V48.8511C355.412 47.3848 355.639 45.9185 356.091 44.4522C356.98 41.5509 358.743 39.4762 361.379 38.2283C362.736 37.5731 364.124 37.2456 365.544 37.2456H366.714C368.055 37.2456 369.381 37.5341 370.692 38.1113C373.312 39.2656 375.075 41.3247 375.98 44.2885C376.385 45.5988 376.588 47.0573 376.588 48.6639ZM392.826 42.2762C391.36 42.2762 390.221 43.0093 389.41 44.4756C388.599 45.9263 388.194 48.1492 388.194 51.1442C388.194 52.4701 388.248 53.4138 388.357 53.9754C388.466 54.5213 388.63 55.2077 388.849 56.0344C389.083 56.8455 389.2 57.5553 389.2 58.1637C389.2 58.7564 388.841 59.3024 388.123 59.8015C387.406 60.3007 386.47 60.5503 385.316 60.5503L384.918 60.5269H384.497C383.748 60.5269 383.124 60.3163 382.625 59.8951C382.141 59.474 381.899 58.9982 381.899 58.4678V58.0935C381.899 57.9843 382.048 57.4695 382.344 56.5492C382.64 55.6288 382.812 54.7397 382.859 53.8818C382.905 53.0238 382.929 51.8695 382.929 50.4188V47.8216L382.905 47.4004C382.905 47.1197 382.905 46.8389 382.905 46.5581L382.859 45.2946C382.843 45.0138 382.835 44.4678 382.835 43.6567C382.835 42.83 382.687 42.05 382.391 41.3169C382.11 40.5681 381.97 40.0846 381.97 39.8662C381.97 38.9302 382.789 38.4623 384.426 38.4623C386.064 38.4623 387.25 38.9068 387.983 39.796C388.201 40.0612 388.427 40.1938 388.661 40.1938C388.911 40.1938 389.317 39.9988 389.878 39.6088C391.438 38.5481 392.748 38.0177 393.809 38.0177H394.183C395.119 38.0177 395.829 38.2283 396.313 38.6495C396.812 39.0706 397.061 39.6322 397.061 40.3341C397.061 41.7224 396.289 42.4166 394.745 42.4166C394.137 42.323 393.497 42.2762 392.826 42.2762Z" fill="black"/>
<path d="M0 0L412.833 0L0 0ZM412.833 66.5217C412.833 79.3157 402.461 89.6872 389.667 89.6872H23.1654C10.3715 89.6872 0 79.3157 0 66.5217C0 75.8192 8.9543 83.3563 20 83.3563H392.833C403.878 83.3563 412.833 75.8192 412.833 66.5217ZM0 86.5217L0 0L0 86.5217ZM412.833 0V86.5217V0Z" fill="black" mask="url(#path-1-inside-1_6_26)"/>
</svg>
